<svg width="88" height="75" viewBox="0 0 88 75" fill="none" xmlns="http://www.w3.org/2000/svg">
<path fill-rule="evenodd" clip-rule="evenodd" d="M78 10H59V34H56V25H40V39H34V19H22V47H23H34H40H49H56H59H78V34V10Z" fill="#3573D5"/>
<path fill-rule="evenodd" clip-rule="evenodd" d="M18 5H83V65C83 67.7615 80.7614 70 78 70H18V66V10V5ZM13 75H9H8V74.9451C3.50005 74.4476 0 70.6326 0 66V10H13V0H88V65C88 70.5228 83.5229 75 78 75H19.5H13ZM13 15V66C13 68.2091 11.2091 70 9 70C6.79086 70 5 68.2091 5 66V15H13ZM78 51H22V54H78V51ZM22 57H78V60H22V57ZM78 63H22V66H78V63Z" fill="#0B2650"/>
</svg>
