<svg width="49" height="44" viewBox="0 0 49 44" fill="none" xmlns="http://www.w3.org/2000/svg">
<path d="M24.5012 13.64C19.4382 13.64 15.3132 17.2842 15.3132 21.7569C15.3132 26.2296 19.4382 29.8738 24.5012 29.8738C29.5641 29.8738 33.6891 26.2296 33.6891 21.7569C33.6891 17.2842 29.5641 13.64 24.5012 13.64ZM48.0836 20.4464L39.0201 16.4471L42.2263 7.95824C42.657 6.80835 41.4223 5.71764 40.1303 6.10658L30.5212 8.93902L25.9847 0.923624C25.3721 -0.158623 23.6302 -0.158623 23.0177 0.923624L18.4907 8.93057L8.87211 6.09812C7.57048 5.71764 6.33585 6.80835 6.77611 7.94978L9.98232 16.4387L0.918795 20.4464C-0.306265 20.9875 -0.306265 22.5263 0.918795 23.0674L9.98232 27.0667L6.77611 35.564C6.34543 36.7139 7.58005 37.8046 8.87211 37.4157L18.4812 34.5832L23.0081 42.5902C23.6207 43.6724 25.3626 43.6724 25.9751 42.5902L30.5021 34.5832L40.1111 37.4157C41.4128 37.7962 42.6474 36.7054 42.2071 35.564L39.0009 27.0751L48.0644 23.0759C49.3086 22.5263 49.3086 20.9875 48.0836 20.4464ZM33.1627 29.4087C28.3869 33.6278 20.6155 33.6278 15.8396 29.4087C11.0638 25.1897 11.0638 18.3241 15.8396 14.1051C20.6155 9.88599 28.3869 9.88599 33.1627 14.1051C37.9386 18.3241 37.9386 25.1897 33.1627 29.4087Z" fill="#F3C41D"/>
</svg>
