<svg width="362" height="34" viewBox="0 0 362 34" fill="none" xmlns="http://www.w3.org/2000/svg">
<path d="M9.55998 4.29596V14.184H24.104V4.29596H21.56C21.08 4.29596 20.84 4.05596 20.84 3.57596V1.12796C20.84 0.647959 21.08 0.407959 21.56 0.407959H32.024C32.504 0.407959 32.744 0.647959 32.744 1.12796V3.57596C32.744 4.05596 32.504 4.29596 32.024 4.29596H29.48V29.208H32.024C32.504 29.208 32.744 29.448 32.744 29.928V32.28C32.744 32.76 32.504 33 32.024 33H21.56C21.08 33 20.84 32.76 20.84 32.28V29.928C20.84 29.448 21.08 29.208 21.56 29.208H24.104V18.312H9.55998V29.208H12.104C12.584 29.208 12.824 29.448 12.824 29.928V32.28C12.824 32.76 12.584 33 12.104 33H1.63998C1.15998 33 0.919983 32.76 0.919983 32.28V29.928C0.919983 29.448 1.15998 29.208 1.63998 29.208H4.18398V4.29596H1.63998C1.15998 4.29596 0.919983 4.05596 0.919983 3.57596V1.12796C0.919983 0.647959 1.15998 0.407959 1.63998 0.407959H12.104C12.584 0.407959 12.824 0.647959 12.824 1.12796V3.57596C12.824 4.05596 12.584 4.29596 12.104 4.29596H9.55998Z" fill="#0B2750"/>
<path d="M36.3519 21.48C36.3519 19.08 36.7199 17 37.4559 15.24C38.1919 13.48 39.1519 12.152 40.3359 11.256C42.6079 9.55996 45.0719 8.71196 47.7279 8.71196C49.6799 8.71196 51.3279 9.01596 52.6719 9.62396C54.0159 10.232 55.0559 10.936 55.7919 11.736C56.5599 12.536 57.1999 13.688 57.7119 15.192C58.2559 16.696 58.5279 18.456 58.5279 20.472C58.5279 24.76 57.4399 28.024 55.2639 30.264C53.1199 32.472 50.3679 33.576 47.0079 33.576C43.6479 33.576 41.0239 32.568 39.1359 30.552C37.2799 28.504 36.3519 25.48 36.3519 21.48ZM47.3919 29.64C49.3119 29.64 50.7039 28.936 51.5679 27.528C52.4639 26.088 52.9119 23.96 52.9119 21.144C52.9119 18.328 52.4639 16.216 51.5679 14.808C50.7039 13.368 49.2799 12.648 47.2959 12.648C43.6159 12.648 41.7759 15.24 41.7759 20.424C41.7759 26.568 43.6479 29.64 47.3919 29.64Z" fill="#0B2750"/>
<path d="M61.4187 12.456V9.95996C61.4187 9.47996 61.6587 9.23996 62.1387 9.23996H68.7147C69.1307 9.23996 69.3707 9.47996 69.4347 9.95996L69.8187 12.744C71.4827 10.056 73.9787 8.71196 77.3067 8.71196C80.6347 8.71196 82.8267 10.12 83.8827 12.936C85.6107 10.12 88.1227 8.71196 91.4187 8.71196C96.3787 8.71196 98.8587 11.432 98.8587 16.872V29.208H101.595C102.075 29.208 102.315 29.448 102.315 29.928V32.28C102.315 32.76 102.075 33 101.595 33H91.0347C90.5547 33 90.3147 32.76 90.3147 32.28V29.928C90.3147 29.448 90.5547 29.208 91.0347 29.208H93.4827V19.272C93.4827 17.256 93.2267 15.784 92.7147 14.856C92.2027 13.928 91.1627 13.464 89.5947 13.464C88.0587 13.464 86.8267 13.88 85.8987 14.712C84.9707 15.544 84.5067 16.52 84.5067 17.64V29.208H86.8107C87.2907 29.208 87.5307 29.448 87.5307 29.928V32.28C87.5307 32.76 87.2907 33 86.8107 33H76.9707C76.4907 33 76.2507 32.76 76.2507 32.28V29.928C76.2507 29.448 76.4907 29.208 76.9707 29.208H79.1307V19.272C79.1307 17.256 78.8747 15.784 78.3627 14.856C77.8507 13.928 76.7947 13.464 75.1947 13.464C73.6267 13.464 72.3787 13.944 71.4507 14.904C70.5547 15.832 70.1067 16.92 70.1067 18.168V29.208H73.0347C73.5147 29.208 73.7547 29.448 73.7547 29.928V32.28C73.7547 32.76 73.5147 33 73.0347 33H62.1867C61.7067 33 61.4667 32.76 61.4667 32.28V29.928C61.4667 29.448 61.7067 29.208 62.1867 29.208H64.7307V13.176H62.1387C61.6587 13.176 61.4187 12.936 61.4187 12.456Z" fill="#0B2750"/>
<path d="M115.782 33.576C111.974 33.576 109.174 32.472 107.382 30.264C105.622 28.024 104.742 25.08 104.742 21.432C104.742 17.752 105.686 14.712 107.574 12.312C109.462 9.91196 112.182 8.71196 115.734 8.71196C117.494 8.71196 118.998 9.04796 120.246 9.71996C121.526 10.36 122.502 11.24 123.174 12.36C124.454 14.536 125.094 17.048 125.094 19.896C125.094 21.24 125.03 21.976 124.902 22.104C124.774 22.232 124.534 22.296 124.182 22.296H110.07C110.23 24.6 110.79 26.392 111.75 27.672C112.742 28.92 114.438 29.544 116.838 29.544C118.598 29.544 120.406 29.128 122.262 28.296C122.71 28.072 123.03 28.2 123.222 28.68L124.134 30.888C124.294 31.272 124.15 31.592 123.702 31.848C121.59 33 118.95 33.576 115.782 33.576ZM110.07 18.744H120.054C120.118 14.744 118.55 12.744 115.35 12.744C113.462 12.744 112.118 13.352 111.318 14.568C110.55 15.752 110.134 17.144 110.07 18.744Z" fill="#0B2750"/>
<path d="M136.099 13.176V25.272C136.099 26.776 136.291 27.864 136.675 28.536C137.059 29.208 137.779 29.544 138.835 29.544C139.891 29.544 140.915 29.32 141.907 28.872C142.259 28.744 142.515 28.872 142.675 29.256L143.539 31.464C143.571 31.56 143.587 31.704 143.587 31.896C143.587 32.056 143.427 32.232 143.107 32.424C141.571 33.192 139.747 33.576 137.635 33.576C134.787 33.576 132.915 32.84 132.019 31.368C131.379 30.408 131.011 29.48 130.915 28.584C130.787 27.368 130.723 26.088 130.723 24.744V13.176H127.987C127.507 13.176 127.267 12.936 127.267 12.456V9.95996C127.267 9.47996 127.507 9.23996 127.987 9.23996H130.723V2.75996C130.723 2.27996 130.963 2.03996 131.443 2.03996H135.379C135.859 2.03996 136.099 2.27996 136.099 2.75996V9.23996H140.947C141.427 9.23996 141.667 9.47996 141.667 9.95996V12.456C141.667 12.936 141.427 13.176 140.947 13.176H136.099Z" fill="#0B2750"/>
<path d="M145.946 21.48C145.946 19.08 146.314 17 147.05 15.24C147.786 13.48 148.746 12.152 149.93 11.256C152.202 9.55996 154.666 8.71196 157.322 8.71196C159.274 8.71196 160.922 9.01596 162.266 9.62396C163.61 10.232 164.65 10.936 165.386 11.736C166.154 12.536 166.794 13.688 167.306 15.192C167.85 16.696 168.122 18.456 168.122 20.472C168.122 24.76 167.034 28.024 164.858 30.264C162.714 32.472 159.962 33.576 156.602 33.576C153.242 33.576 150.618 32.568 148.73 30.552C146.874 28.504 145.946 25.48 145.946 21.48ZM156.986 29.64C158.906 29.64 160.298 28.936 161.162 27.528C162.058 26.088 162.506 23.96 162.506 21.144C162.506 18.328 162.058 16.216 161.162 14.808C160.298 13.368 158.874 12.648 156.89 12.648C153.21 12.648 151.37 15.24 151.37 20.424C151.37 26.568 153.242 29.64 156.986 29.64Z" fill="#0B2750"/>
<path d="M177.264 9.95996L181.632 27.096L186.384 9.91196C186.512 9.46396 186.816 9.23996 187.296 9.23996H191.136C191.616 9.23996 191.92 9.46396 192.048 9.91196L196.944 27.192L201.216 13.176H198.912C198.432 13.176 198.192 12.936 198.192 12.456V9.95996C198.192 9.47996 198.432 9.23996 198.912 9.23996H205.056C205.44 9.23996 205.696 9.35196 205.824 9.57596C205.984 9.76796 206.064 9.94396 206.064 10.104C206.064 10.264 206.048 10.408 206.016 10.536L199.392 32.328C199.264 32.776 198.96 33 198.48 33H194.16C193.68 33 193.376 32.76 193.248 32.28L188.688 15.336L183.936 32.328C183.808 32.776 183.504 33 183.024 33H178.704C178.224 33 177.92 32.776 177.792 32.328L172.56 13.176H170.064C169.584 13.176 169.344 12.936 169.344 12.456V9.95996C169.344 9.47996 169.584 9.23996 170.064 9.23996H176.352C176.832 9.23996 177.136 9.47996 177.264 9.95996Z" fill="#0B2750"/>
<path d="M208.044 12.504V9.95996C208.044 9.47996 208.284 9.23996 208.764 9.23996H215.292C215.708 9.23996 215.964 9.47996 216.06 9.95996L216.492 12.744C218.284 10.056 220.844 8.71196 224.172 8.71196C229.132 8.71196 231.612 11.432 231.612 16.872V29.208H234.396C234.876 29.208 235.116 29.448 235.116 29.928V32.28C235.116 32.76 234.876 33 234.396 33H223.932C223.452 33 223.212 32.76 223.212 32.28V29.928C223.212 29.448 223.452 29.208 223.932 29.208H226.236V19.272C226.236 17.256 225.98 15.784 225.468 14.856C224.956 13.928 223.9 13.464 222.3 13.464C220.7 13.464 219.372 13.944 218.316 14.904C217.26 15.864 216.732 16.952 216.732 18.168V29.208H219.708C220.188 29.208 220.428 29.448 220.428 29.928V32.28C220.428 32.76 220.188 33 219.708 33H208.812C208.332 33 208.092 32.76 208.092 32.28V29.928C208.092 29.448 208.332 29.208 208.812 29.208H211.356V13.176H208.764C208.284 13.176 208.044 12.952 208.044 12.504Z" fill="#0B2750"/>
<path d="M276.382 4.29596V32.28C276.382 32.76 276.142 33 275.662 33H272.158C271.678 33 271.31 32.808 271.054 32.424L254.782 8.37596V29.208H258.766C259.246 29.208 259.486 29.448 259.486 29.928V32.28C259.486 32.76 259.246 33 258.766 33H248.062C247.582 33 247.342 32.76 247.342 32.28V29.928C247.342 29.448 247.582 29.208 248.062 29.208H250.606V4.29596H248.062C247.582 4.29596 247.342 4.05596 247.342 3.57596V1.12796C247.342 0.647959 247.582 0.407959 248.062 0.407959H255.118C255.566 0.407959 255.934 0.615959 256.222 1.03196L272.206 25.32V4.29596H269.662C269.182 4.29596 268.942 4.05596 268.942 3.57596V1.12796C268.942 0.647959 269.182 0.407959 269.662 0.407959H278.926C279.406 0.407959 279.646 0.647959 279.646 1.12796V3.57596C279.646 4.05596 279.406 4.29596 278.926 4.29596H276.382Z" fill="#0B2750"/>
<path d="M293.814 33.576C290.006 33.576 287.206 32.472 285.414 30.264C283.654 28.024 282.774 25.08 282.774 21.432C282.774 17.752 283.718 14.712 285.606 12.312C287.494 9.91196 290.214 8.71196 293.766 8.71196C295.526 8.71196 297.03 9.04796 298.278 9.71996C299.558 10.36 300.534 11.24 301.206 12.36C302.486 14.536 303.126 17.048 303.126 19.896C303.126 21.24 303.062 21.976 302.934 22.104C302.806 22.232 302.566 22.296 302.214 22.296H288.102C288.262 24.6 288.822 26.392 289.782 27.672C290.774 28.92 292.47 29.544 294.87 29.544C296.63 29.544 298.438 29.128 300.294 28.296C300.742 28.072 301.062 28.2 301.254 28.68L302.166 30.888C302.326 31.272 302.182 31.592 301.734 31.848C299.622 33 296.982 33.576 293.814 33.576ZM288.102 18.744H298.086C298.15 14.744 296.582 12.744 293.382 12.744C291.494 12.744 290.15 13.352 289.35 14.568C288.582 15.752 288.166 17.144 288.102 18.744Z" fill="#0B2750"/>
<path d="M312.498 9.95996L316.866 27.096L321.618 9.91196C321.746 9.46396 322.05 9.23996 322.53 9.23996H326.37C326.85 9.23996 327.154 9.46396 327.282 9.91196L332.178 27.192L336.45 13.176H334.146C333.666 13.176 333.426 12.936 333.426 12.456V9.95996C333.426 9.47996 333.666 9.23996 334.146 9.23996H340.29C340.674 9.23996 340.93 9.35196 341.058 9.57596C341.218 9.76796 341.298 9.94396 341.298 10.104C341.298 10.264 341.282 10.408 341.25 10.536L334.626 32.328C334.498 32.776 334.194 33 333.714 33H329.394C328.914 33 328.61 32.76 328.482 32.28L323.922 15.336L319.17 32.328C319.042 32.776 318.738 33 318.258 33H313.938C313.458 33 313.154 32.776 313.026 32.328L307.794 13.176H305.298C304.818 13.176 304.578 12.936 304.578 12.456V9.95996C304.578 9.47996 304.818 9.23996 305.298 9.23996H311.586C312.066 9.23996 312.37 9.47996 312.498 9.95996Z" fill="#0B2750"/>
<path d="M344.063 16.104C344.063 13.992 344.879 12.232 346.511 10.824C348.143 9.41596 350.207 8.71196 352.703 8.71196C355.199 8.71196 357.359 8.99996 359.183 9.57596C359.631 9.70396 359.855 9.99196 359.855 10.44V15.528C359.855 16.008 359.615 16.248 359.135 16.248H356.351C355.839 16.248 355.631 16.008 355.727 15.528L355.967 13.08C355.007 12.568 353.951 12.312 352.799 12.312C350.239 12.312 348.959 13.208 348.959 15C348.959 15.928 349.375 16.664 350.207 17.208C351.039 17.752 352.047 18.2 353.231 18.552C354.415 18.872 355.599 19.256 356.783 19.704C357.999 20.12 359.023 20.856 359.855 21.912C360.687 22.936 361.103 24.248 361.103 25.848C361.103 28.28 360.255 30.184 358.559 31.56C356.863 32.904 354.479 33.576 351.407 33.576C349.263 33.576 347.007 33.256 344.639 32.616C344.223 32.488 344.015 32.184 344.015 31.704V26.616C344.015 26.136 344.255 25.896 344.735 25.896H347.519C347.999 25.896 348.223 26.136 348.191 26.616L348.047 29.112C348.911 29.752 350.143 30.072 351.743 30.072C354.591 30.072 356.015 29.064 356.015 27.048C356.015 26.024 355.599 25.224 354.767 24.648C353.967 24.04 352.975 23.576 351.791 23.256C350.639 22.936 349.471 22.584 348.287 22.2C347.103 21.784 346.095 21.08 345.263 20.088C344.463 19.064 344.063 17.736 344.063 16.104Z" fill="#0B2750"/>
</svg>
