<svg width="49" height="31" viewBox="0 0 49 31" fill="none" xmlns="http://www.w3.org/2000/svg">
<path d="M41.16 13.3707C41.4739 12.6533 41.65 11.8688 41.65 11.0508C41.65 7.49721 38.3578 4.61412 34.3 4.61412C32.7917 4.61412 31.383 5.01641 30.2192 5.70031C28.0984 2.48197 24.1402 0.322998 19.6 0.322998C12.8319 0.322998 7.35 5.12369 7.35 11.0508C7.35 11.2318 7.35766 11.4129 7.36531 11.5939C3.07781 12.9148 0 16.4952 0 20.7058C0 26.0362 4.93828 30.3608 11.025 30.3608H39.2C44.613 30.3608 49 26.5189 49 21.7786C49 17.6283 45.6312 14.1619 41.16 13.3707Z" fill="#76C9ED"/>
</svg>
