<svg width="50" height="45" viewBox="0 0 50 45" fill="none" xmlns="http://www.w3.org/2000/svg">
<path d="M17.9598 32.3293C17.2176 31.9497 16.2606 32.174 15.8309 32.847L9.58105 42.5099C9.15137 43.1742 9.41504 44.0197 10.167 44.3907C10.4111 44.5115 10.6748 44.5719 10.9384 44.5719C11.4755 44.5719 12.0029 44.3217 12.2958 43.8731L18.5457 34.2101C18.9754 33.5544 18.7117 32.7089 17.9598 32.3293ZM27.3345 32.3293C26.5924 31.9497 25.6353 32.174 25.2057 32.847L18.9558 42.5099C18.5261 43.1742 18.7898 44.0197 19.5417 44.3907C19.7859 44.5115 20.0495 44.5719 20.3132 44.5719C20.8503 44.5719 21.3776 44.3217 21.6706 43.8731L27.9205 34.2101C28.3501 33.5544 28.0865 32.7089 27.3345 32.3293ZM8.58498 32.3293C7.84281 31.9497 6.8858 32.174 6.45612 32.847L0.206273 42.5099C-0.223405 43.1742 0.0402609 44.0197 0.792196 44.3907C1.03633 44.5115 1.3 44.5719 1.56366 44.5719C2.10076 44.5719 2.62809 44.3217 2.92105 43.8731L9.1709 34.2101C9.60058 33.5544 9.33691 32.7089 8.58498 32.3293ZM46.0841 32.3293C45.3419 31.9497 44.3849 32.174 43.9552 32.847L37.7054 42.5099C37.2757 43.1742 37.5394 44.0197 38.2913 44.3907C38.5354 44.5115 38.7991 44.5719 39.0628 44.5719C39.5999 44.5719 40.1272 44.3217 40.4202 43.8731L46.67 34.2101C47.0997 33.5544 46.836 32.7089 46.0841 32.3293ZM36.7093 32.3293C35.9671 31.9497 35.0101 32.174 34.5804 32.847L28.3306 42.5099C27.9009 43.1742 28.1646 44.0197 28.9165 44.3907C29.1607 44.5115 29.4243 44.5719 29.688 44.5719C30.2251 44.5719 30.7524 44.3217 31.0454 43.8731L37.2952 34.2101C37.7249 33.5544 37.4612 32.7089 36.7093 32.3293ZM40.6252 11.4418C40.5666 11.4418 40.5178 11.4591 40.469 11.4591C40.5764 11.0104 40.6252 10.5445 40.6252 10.0614C40.6252 6.24797 37.1292 3.15928 32.8129 3.15928C30.4106 3.15928 28.2915 4.1342 26.856 5.64404C25.0397 2.53809 21.4167 0.398438 17.1883 0.398438C11.1533 0.398438 6.25105 4.72088 6.25105 10.0614C6.25105 10.6912 6.32917 11.2951 6.45612 11.8904C2.71598 12.9775 0.0011994 16.0576 0.0011994 19.7243C0.0011994 24.297 4.20032 28.0069 9.37597 28.0069H40.6252C45.8009 28.0069 50 24.297 50 19.7243C50 15.1517 45.8009 11.4418 40.6252 11.4418Z" fill="#455DB4"/>
</svg>
